<svg width="1024" height="768" xmlns="http://www.w3.org/2000/svg">
 <!-- Created with Method Draw - http://github.com/duopixel/Method-Draw/ -->

 <g>
  <title>background</title>
  <rect fill="none" id="canvas_background" height="602" width="802" y="-1" x="-1"/>
 </g>
 <g>
  <title>Layer 1</title>
  <path fill="#fdf6e3" stroke="#000" stroke-width="1.5" stroke-opacity="null" opacity="0.5" d="m5.25,149.85678" id="svg_3"/>
  <path fill="#fdf6e3" stroke="#000" stroke-width="1.5" stroke-opacity="null" opacity="0.5" d="m19.25,268.85678l-18.5,137" id="svg_5"/>
  <path fill="#073642" stroke="#000" stroke-width="0" d="m6.3938,439.85678c34,19 89,160.00003 145,102.00003c56,-58.00003 129,-94.00003 134,-47.00003c5,47.00003 19,60.00003 35,28.00003c16,-32.00003 147,-115.00003 173,-72.00003c26,43 11,64.00003 33,64.00003c22,0 165,-167.00003 192,-116.00003c27,51 122,-79 72,-91c-50,-12 9,-171 15,-101c6,70 24,41 47,23c23,-18 -11,74 34.5,63c45.5,-11 22.5,-137 13,-187c-9.5,-50 -79.5,-60 -105,-84c-25.5,-24 -146.5,31 -131,-10c15.5,-41 -627.5,-27 -666,-1c-38.5,26 -25.5,410 8.5,429z" id="svg_8"/>
 </g>
</svg>